<svg width="32" height="32" viewBox="0 0 32 32" fill="none" xmlns="http://www.w3.org/2000/svg">
<path d="M28.0699 31H3.9384C2.3152 31 1 29.451 1 27.5392V12.4608C1 10.549 2.3152 9 3.9384 9H28.0616C29.6848 9 31 10.549 31 12.4608V27.5294C31.0083 29.451 29.6931 31 28.0699 31Z" stroke="#E23A3A" stroke-width="2" stroke-miterlimit="10"/>
<path d="M16.5 27C12.9099 27 10 24.0901 10 20.5C10 16.9099 12.9099 14 16.5 14C20.0901 14 23 16.9099 23 20.5C23 24.0901 20.0901 27 16.5 27Z" stroke="#E23A3A" stroke-width="2" stroke-miterlimit="10"/>
<path d="M8.70204 4H5.28571C4.57551 4 4 4.85145 4 5.90217V9H10V5.90217C9.98776 4.85145 9.41225 4 8.70204 4Z" stroke="#E23A3A" stroke-width="2" stroke-miterlimit="10"/>
<path d="M19 1H24.2043C24.2936 1 24.3748 1.2029 24.3992 1.52174L25 9H24.2043H19H13.7957H13L13.6008 1.52174C13.6252 1.2029 13.7064 1 13.7957 1H19" stroke="#E23A3A" stroke-width="2" stroke-miterlimit="10"/>
</svg>
