<svg width="32" height="32" viewBox="0 0 32 32" fill="none" xmlns="http://www.w3.org/2000/svg">
<path d="M19.986 10.0769H28.7232C29.9776 10.0769 31 11.6313 31 13.5599V23.6444C31 25.5634 29.9839 27.1274 28.7232 27.1274H27.613V30.7928C27.613 30.9655 27.4813 31.0614 27.3935 30.9559L24.1257 27.1274H14.2783C13.0238 27.1274 12.0015 25.573 12.0015 23.6444V18.0504" stroke="#E23A3A" stroke-width="2" stroke-miterlimit="10"/>
<path d="M3.27681 18.0409C2.02237 18.0409 1 16.4865 1 14.5579V4.48303C1 2.564 2.0161 1 3.27681 1H17.7155C18.9699 1 19.9923 2.55441 19.9923 4.48303V14.5675C19.9923 16.4865 18.9762 18.0505 17.7155 18.0505H7.86807L4.60025 21.8694C4.51244 21.9749 4.38072 21.879 4.38072 21.7063V18.0409H3.27681V18.0409Z" stroke="#E23A3A" stroke-width="2" stroke-miterlimit="10"/>
<path d="M27 13.656H20.2721" stroke="#E23A3A" stroke-width="2" stroke-miterlimit="10"/>
<path d="M26.9999 16.9856H19.7592" stroke="#E23A3A" stroke-width="2" stroke-miterlimit="10"/>
<path d="M15.8572 20.3149H27" stroke="#E23A3A" stroke-width="2" stroke-miterlimit="10"/>
<path d="M15.8572 23.6445H27" stroke="#E23A3A" stroke-width="2" stroke-miterlimit="10"/>
<path d="M13.8485 8.44639H14.8855C14.9946 8.44639 15.0414 8.32164 14.9556 8.25926L10.5663 5.02339C10.5273 4.9922 10.4649 4.9922 10.4181 5.02339L6.04437 8.26706C5.95861 8.32943 6.00538 8.45419 6.11453 8.45419H7.15145V12.8986C7.15145 12.9532 7.20603 13 7.2684 13H13.7394C13.8018 13 13.8563 12.9532 13.8563 12.8986L13.8485 9.67836V8.44639Z" stroke="#E23A3A" stroke-width="2" stroke-miterlimit="10"/>
</svg>
