<svg width="24" height="28" viewBox="0 0 24 28" fill="none" xmlns="http://www.w3.org/2000/svg">
<path d="M10.3209 4.53672V2.04742C10.3209 1.47068 10.8289 1 11.4595 1H12.5477C13.1747 1 13.6863 1.46736 13.6863 2.04742V4.54003" stroke="#E23A3A" stroke-width="2" stroke-miterlimit="10"/>
<path d="M10.9406 12.8731L7.78416 18.7666L5.46003 23.1054C5.04926 23.8711 4.04034 24.186 3.20797 23.8081C2.61343 23.5396 2.27112 22.9894 2.27112 22.4193C2.27112 22.1906 2.32517 21.9552 2.44408 21.7365L4.03673 18.7632L8.12287 11.1296C8.78587 11.9981 9.78399 12.6312 10.9406 12.8731Z" stroke="#E23A3A" stroke-width="2" stroke-miterlimit="10"/>
<path d="M1.5 27L3.20796 23.8113" stroke="#E23A3A" stroke-width="2" stroke-miterlimit="10"/>
<path d="M15.8772 11.1328L19.9633 18.7664L21.556 21.7396C21.6749 21.9584 21.7289 22.1937 21.7289 22.4225C21.7289 22.9926 21.383 23.5428 20.7921 23.8113C19.9597 24.1892 18.9508 23.8743 18.54 23.1086L16.2159 18.7697L13.0594 12.8763" stroke="#E23A3A" stroke-width="2" stroke-miterlimit="10"/>
<path d="M22.5001 27L20.7921 23.8113" stroke="#E23A3A" stroke-width="2" stroke-miterlimit="10"/>
<path d="M8.12285 11.1328C7.57875 10.4234 7.25806 9.55498 7.25806 8.61694C7.25806 6.7508 8.53002 5.15978 10.3209 4.53663C10.8433 4.35432 11.4091 4.25488 12.0036 4.25488C12.5981 4.25488 13.1639 4.35432 13.6863 4.53663C15.4772 5.15978 16.7491 6.75412 16.7491 8.61694C16.7491 9.55498 16.4284 10.4201 15.8843 11.1328C15.2213 11.9979 14.2232 12.6277 13.0666 12.8729C12.7243 12.9459 12.3711 12.9823 12.0072 12.9823C11.6433 12.9823 11.2865 12.9459 10.9478 12.8729" stroke="#E23A3A" stroke-width="2" stroke-miterlimit="10"/>
<path d="M7.78412 18.77H10.8649H13.1386H16.2194" stroke="#E23A3A" stroke-width="2" stroke-miterlimit="10"/>
<path d="M22.428 18.77H19.9669" stroke="#E23A3A" stroke-width="2" stroke-miterlimit="10"/>
<path d="M4.03679 18.77H1.57574" stroke="#E23A3A" stroke-width="2" stroke-miterlimit="10"/>
</svg>
