<svg width="32" height="28" viewBox="0 0 32 28" fill="none" xmlns="http://www.w3.org/2000/svg">
<path d="M15.9928 1H5.99756V7.19235H15.9928V1Z" stroke="#E23A3A" stroke-width="2" stroke-miterlimit="10"/>
<path d="M26.0023 1H16.0071V7.19235H26.0023V1Z" stroke="#E23A3A" stroke-width="2" stroke-miterlimit="10"/>
<path d="M20.9903 7.19238H10.9951V13.3847H20.9903V7.19238Z" stroke="#E23A3A" stroke-width="2" stroke-miterlimit="10"/>
<path d="M31.0001 7.19238H21.0049V13.3847H31.0001V7.19238Z" stroke="#E23A3A" stroke-width="2" stroke-miterlimit="10"/>
<path d="M10.9952 7.19238H1V13.3847H10.9952V7.19238Z" stroke="#E23A3A" stroke-width="2" stroke-miterlimit="10"/>
<path d="M15.9928 13.3848H5.99756V20.1924H15.9928V13.3848Z" stroke="#E23A3A" stroke-width="2" stroke-miterlimit="10"/>
<path d="M26.0023 13.3848H16.0071V20.1924H26.0023V13.3848Z" stroke="#E23A3A" stroke-width="2" stroke-miterlimit="10"/>
<path d="M20.9903 20.1924H10.9951V27H20.9903V20.1924Z" stroke="#E23A3A" stroke-width="2" stroke-miterlimit="10"/>
<path d="M31.0001 20.1924H21.0049V27H31.0001V20.1924Z" stroke="#E23A3A" stroke-width="2" stroke-miterlimit="10"/>
<path d="M10.9952 20.1924H1V27H10.9952V20.1924Z" stroke="#E23A3A" stroke-width="2" stroke-miterlimit="10"/>
</svg>
