<svg width="34" height="26" viewBox="0 0 34 26" fill="none" xmlns="http://www.w3.org/2000/svg">
<path d="M15.866 1.61588L2.21288 22.9432C1.64368 23.8335 2.28211 25 3.34359 25H30.6575C31.7113 25 32.3574 23.8335 31.7882 22.9432L18.1274 1.61588C17.5967 0.794708 16.3968 0.794708 15.866 1.61588Z" stroke="#E23A3A" stroke-width="2" stroke-miterlimit="10"/>
<path d="M17.8098 17.2487H16.0761L15.3934 7.06958H18.4925L17.8098 17.2487Z" fill="#E23A3A"/>
<path d="M16.9505 21.8945C17.8063 21.8945 18.5 21.2023 18.5 20.3485C18.5 19.4947 17.8063 18.8025 16.9505 18.8025C16.0947 18.8025 15.401 19.4947 15.401 20.3485C15.401 21.2023 16.0947 21.8945 16.9505 21.8945Z" fill="#E23A3A"/>
</svg>
