<svg width="26" height="32" viewBox="0 0 26 32" fill="none" xmlns="http://www.w3.org/2000/svg">
<path d="M9.24183 3.96817H8.59877C8.34822 3.96817 8.14779 3.77719 8.14779 3.53846V1.42971C8.14779 1.19098 8.34822 1 8.59877 1H17.6184C17.8689 1 18.0694 1.19098 18.0694 1.42971V3.53846C18.0694 3.77719 17.8689 3.96817 17.6184 3.96817H16.9753L16.8584 12.817C21.3097 14.3289 24.4916 18.3793 24.4916 23.1379C24.4916 25.5889 23.6481 27.8488 22.22 29.6711C21.5686 30.5066 20.5414 31 19.4557 31H6.53595C5.45025 31 4.42302 30.5066 3.77161 29.6711C2.3435 27.8568 1.5 25.5968 1.5 23.1459C1.5 18.3793 4.68192 14.3289 9.13326 12.817L9.24183 3.96817Z" stroke="#E23A3A" stroke-width="2" stroke-miterlimit="10"/>
<path d="M1.7088 21.0768C1.7088 21.0768 6.56102 19.2148 14.662 21.9203C21.4016 24.1644 24.5 22.8832 24.5 22.8832" stroke="#E23A3A" stroke-width="2" stroke-miterlimit="10"/>
</svg>
