<svg width="28" height="31" viewBox="0 0 28 31" fill="none" xmlns="http://www.w3.org/2000/svg">
<path d="M6.84338 10.1907C6.9388 14.264 10.0363 17.5384 13.8457 17.5384C17.6405 17.5384 20.7306 14.2877 20.8407 10.2302" stroke="#E23A3A" stroke-width="2" stroke-miterlimit="10"/>
<path d="M1.5 31.0001C1.5 23.5653 7.09307 17.5305 14 17.5305C20.9069 17.5305 26.5 23.5574 26.5 31.0001" stroke="#E23A3A" stroke-width="2" stroke-miterlimit="10"/>
<path d="M16.9066 26.8319H11.086C10.763 26.8319 10.4988 26.5472 10.4988 26.1992V22.6083C10.4988 22.2603 10.763 21.9756 11.086 21.9756H16.9066C17.2295 21.9756 17.4938 22.2603 17.4938 22.6083V26.1912C17.5011 26.5472 17.2369 26.8319 16.9066 26.8319Z" stroke="#E23A3A" stroke-width="2" stroke-miterlimit="10"/>
<path d="M9.47119 8.11047C9.47119 4.18745 11.497 1 14 1C16.5029 1 18.5287 4.17954 18.5287 8.11047" stroke="#E23A3A" stroke-width="2" stroke-miterlimit="10"/>
<path d="M14 1V8.11047" stroke="#E23A3A" stroke-width="2" stroke-miterlimit="10"/>
<path d="M22.4776 10.0482L15.6808 10.7759C14.5651 10.8945 13.4347 10.8945 12.319 10.7759L5.52222 10.0482C5.52222 5.00211 9.31699 1 13.9999 1C18.6828 1 22.4776 5.00211 22.4776 10.0482Z" stroke="#E23A3A" stroke-width="2" stroke-miterlimit="10"/>
<path d="M11.7393 17.752L14 21.9676L16.2607 17.752" stroke="#E23A3A" stroke-width="2" stroke-miterlimit="10" stroke-linejoin="round"/>
</svg>
