<svg width="32" height="32" viewBox="0 0 32 32" fill="none" xmlns="http://www.w3.org/2000/svg">
<path d="M15.2931 2.96808C15.8283 2.90603 16.379 2.875 16.9375 2.875C24.7017 2.875 31 9.17326 31 16.9375C31 24.7017 24.7095 31 16.9375 31C9.17326 31 2.875 24.7095 2.875 16.9375C2.875 16.379 2.90603 15.8361 2.96808 15.2931" stroke="#E23A3A" stroke-width="2" stroke-miterlimit="10"/>
<path d="M16.9375 26.1134V16.9375L25.7876 11.3916" stroke="#E23A3A" stroke-width="2" stroke-miterlimit="10"/>
<path d="M14.6561 15.0625H2.33544C1.85111 15.0625 1.46875 14.6716 1.46875 14.1958V1.86669C1.46875 1.38236 1.85961 1 2.33544 1H14.6646C15.1489 1 15.5313 1.39086 15.5313 1.86669V14.1958C15.5313 14.6716 15.1404 15.0625 14.6561 15.0625Z" stroke="#E23A3A" stroke-width="2" stroke-miterlimit="10"/>
<path d="M5.5 4L5.5 12" stroke="#E23A3A" stroke-width="2" stroke-miterlimit="10"/>
<path d="M10.375 11.3125C9.60054 11.3125 8.96875 10.4123 8.96875 9.30891V6.7536C8.96875 5.65017 9.60054 4.75 10.375 4.75C11.1495 4.75 11.7812 5.65017 11.7812 6.7536V9.30891C11.7812 10.4196 11.1495 11.3125 10.375 11.3125Z" stroke="#E23A3A" stroke-width="2" stroke-miterlimit="10"/>
</svg>
